<svg width="360" height="104" viewBox="0 0 360 104" fill="none" xmlns="http://www.w3.org/2000/svg">
<path d="M525 -93.9999L509.25 -64.7968C493.5 -36.0312 462 23.0313 430.5 46C399 68.9688 367.5 58.0313 336 34.2969C304.5 11 273 -24 241.5 -24C210 -24 178.5 11 147 34.2969C115.5 58.0312 84 68.9687 52.5 81C21 93.0312 -10.5 103.969 -26.25 110.203L-42 116L-42 -94L-26.25 -94C-10.5 -94 21 -94 52.5 -94C84 -94 115.5 -94 147 -94C178.5 -94 210 -94 241.5 -94C273 -94 304.5 -94 336 -94C367.5 -94 399 -93.9999 430.5 -93.9999C462 -93.9999 493.5 -93.9999 509.25 -93.9999L525 -93.9999Z" fill="#F8F9FA"/>
</svg>
